<svg width="110" height="24" viewBox="0 0 110 24" fill="none" xmlns="http://www.w3.org/2000/svg">
<path d="M9.50734 7.13V6.08C9.50734 5.42 9.28734 4.87 8.84734 4.43C8.40734 3.99 7.85734 3.77 7.19734 3.77C6.55734 3.77 6.01734 4 5.57734 4.46C5.13734 4.9 4.91734 5.44 4.91734 6.08V11.06H3.41734V17.9C3.41734 18.54 3.63734 19.08 4.07734 19.52C4.51734 19.96 5.05734 20.18 5.69734 20.18C6.33734 20.18 6.87734 19.96 7.31734 19.52C7.77734 19.08 8.00734 18.54 8.00734 17.9V16.85H11.0973V17.9C11.0973 18.64 10.9573 19.34 10.6773 20C10.3973 20.64 10.0173 21.2 9.53734 21.68C9.03734 22.18 8.45734 22.57 7.79734 22.85C7.15734 23.13 6.45734 23.27 5.69734 23.27C4.95734 23.27 4.25734 23.13 3.59734 22.85C2.95734 22.57 2.38734 22.19 1.88734 21.71C1.40734 21.21 1.02734 20.64 0.747344 20C0.467344 19.34 0.327344 18.64 0.327344 17.9V11.06H1.82734V6.08C1.82734 5.32 1.96734 4.62 2.24734 3.98C2.52734 3.32 2.90734 2.75 3.38734 2.27C3.88734 1.77 4.45734 1.38 5.09734 1.1C5.75734 0.819999 6.45734 0.679999 7.19734 0.679999C7.93734 0.679999 8.63734 0.819999 9.29734 1.1C9.95734 1.38 10.5273 1.77 11.0073 2.27C11.5073 2.75 11.8973 3.32 12.1773 3.98C12.4573 4.64 12.5973 5.34 12.5973 6.08V7.13H9.50734ZM26.6528 1.01V11.24H25.1528V18.05C25.1528 18.77 25.0128 19.45 24.7328 20.09C24.4728 20.73 24.1028 21.29 23.6228 21.77C23.1428 22.25 22.5828 22.63 21.9428 22.91C21.3228 23.17 20.6528 23.3 19.9328 23.3C19.1928 23.3 18.5028 23.16 17.8628 22.88C17.2428 22.6 16.7028 22.23 16.2428 21.77C15.7628 21.29 15.3828 20.74 15.1028 20.12C14.8228 19.48 14.6828 18.79 14.6828 18.05V11.24H16.1828V1.01H19.1828V11.24H17.6828V18.05C17.6828 18.69 17.8928 19.23 18.3128 19.67C18.7528 20.09 19.2928 20.3 19.9328 20.3C20.5528 20.3 21.0828 20.08 21.5228 19.64C21.9428 19.22 22.1528 18.69 22.1528 18.05V11.24H23.6528V1.01H26.6528ZM39.5753 1.01V4.01H35.5853V11.09H34.0853V23H31.0853V11.09H32.5853V4.01H28.5953V1.01H39.5753ZM50.9688 11.96C51.5288 12.48 51.9888 13.12 52.3488 13.88C52.6888 14.68 52.8588 15.57 52.8588 16.55C52.8588 17.43 52.7188 18.27 52.4388 19.07C52.1588 19.85 51.7588 20.55 51.2388 21.17C50.9588 21.49 50.6688 21.78 50.3688 22.04C50.0688 22.28 49.7388 22.49 49.3788 22.67C48.6788 23.05 47.8988 23.24 47.0388 23.24C46.1988 23.24 45.4088 23.05 44.6688 22.67C43.9488 22.29 43.3388 21.79 42.8388 21.17C42.3188 20.55 41.9188 19.85 41.6388 19.07C41.3588 18.27 41.2188 17.43 41.2188 16.55H44.2488C44.2488 17.59 44.5488 18.49 45.1488 19.25C45.7288 19.89 46.3588 20.21 47.0388 20.21C47.7388 20.21 48.3588 19.89 48.8988 19.25C49.1988 18.89 49.4188 18.48 49.5588 18.02C49.7188 17.56 49.7988 17.07 49.7988 16.55C49.7988 15.87 49.6988 15.35 49.4988 14.99C49.3188 14.63 49.1188 14.35 48.8988 14.15C48.5788 13.85 48.1988 13.59 47.7588 13.37C47.3188 13.15 46.8688 12.93 46.4088 12.71L46.0488 12.53C45.5888 12.31 45.1388 12.09 44.6988 11.87C44.2788 11.65 43.8688 11.38 43.4688 11.06H44.9688L44.6688 10.79C43.5288 9.77 42.9588 8.44 42.9588 6.8C42.9588 6 43.0888 5.24 43.3488 4.52C43.6088 3.8 43.9988 3.15 44.5188 2.57C45.0388 1.99 45.6488 1.54 46.3488 1.22C47.0488 0.899999 47.7788 0.739999 48.5388 0.739999C49.2988 0.739999 50.0188 0.899999 50.6988 1.22C51.3988 1.54 52.0088 1.99 52.5288 2.57C53.0488 3.15 53.4388 3.8 53.6988 4.52C53.9788 5.24 54.1188 6 54.1188 6.8H51.0888C51.0888 6.38 51.0188 5.99 50.8788 5.63C50.7588 5.25 50.5788 4.93 50.3388 4.67C50.1188 4.39 49.8488 4.17 49.5288 4.01C49.2288 3.85 48.8988 3.77 48.5388 3.77C48.1788 3.77 47.8388 3.85 47.5188 4.01C47.2188 4.17 46.9488 4.39 46.7088 4.67C46.4888 4.93 46.3088 5.25 46.1688 5.63C46.0488 5.99 45.9888 6.38 45.9888 6.8C45.9888 7.18 46.0388 7.51 46.1388 7.79C46.2588 8.07 46.4388 8.32 46.6788 8.54C46.9188 8.76 47.2288 8.98 47.6088 9.2C48.0088 9.4 48.4888 9.63 49.0488 9.89L49.1988 9.95C49.5388 10.11 49.8888 10.28 50.2488 10.46C50.6288 10.64 50.9888 10.84 51.3288 11.06H49.8288C50.0288 11.2 50.2188 11.34 50.3988 11.48C50.5988 11.62 50.7888 11.78 50.9688 11.96ZM65.1128 7.13V6.08C65.1128 5.42 64.8928 4.87 64.4528 4.43C64.0128 3.99 63.4628 3.77 62.8028 3.77C62.1628 3.77 61.6228 4 61.1828 4.46C60.7428 4.9 60.5228 5.44 60.5228 6.08V11.06H59.0228V17.9C59.0228 18.54 59.2428 19.08 59.6828 19.52C60.1228 19.96 60.6628 20.18 61.3028 20.18C61.9428 20.18 62.4828 19.96 62.9228 19.52C63.3828 19.08 63.6128 18.54 63.6128 17.9V16.85H66.7028V17.9C66.7028 18.64 66.5628 19.34 66.2828 20C66.0028 20.64 65.6228 21.2 65.1428 21.68C64.6428 22.18 64.0628 22.57 63.4028 22.85C62.7628 23.13 62.0628 23.27 61.3028 23.27C60.5628 23.27 59.8628 23.13 59.2028 22.85C58.5628 22.57 57.9928 22.19 57.4928 21.71C57.0128 21.21 56.6328 20.64 56.3528 20C56.0728 19.34 55.9328 18.64 55.9328 17.9V11.06H57.4328V6.08C57.4328 5.32 57.5728 4.62 57.8528 3.98C58.1328 3.32 58.5128 2.75 58.9928 2.27C59.4928 1.77 60.0628 1.38 60.7028 1.1C61.3628 0.819999 62.0628 0.679999 62.8028 0.679999C63.5428 0.679999 64.2428 0.819999 64.9028 1.1C65.5628 1.38 66.1328 1.77 66.6128 2.27C67.1128 2.75 67.5028 3.32 67.7828 3.98C68.0628 4.64 68.2028 5.34 68.2028 6.08V7.13H65.1128ZM74.9383 4.01V9.41H80.9083V11.09H79.4083V12.41H73.4383V20H80.3983V23H70.4383V11.09H71.9383V1.01H81.5983V4.01H74.9383ZM95.9727 1.01V11.09H94.4727V23H91.4127L87.3327 11.09H87.0027V23H84.0027V11.09H85.5027V1.01H88.5927L92.0127 11.09H92.9727V1.01H95.9727ZM88.8327 11.09L88.5027 10.07V11.09H88.8327ZM91.4727 11.09H90.5127L91.4727 13.94V11.09ZM102.858 4.01V9.41H108.828V11.09H107.328V12.41H101.358V20H108.318V23H98.3582V11.09H99.8582V1.01H109.518V4.01H102.858Z" fill="black"/>
</svg>
